<svg xmlns="http://www.w3.org/2000/svg" width="1280" height="280" viewBox="0 0 1280 280">

  <!-- Background -->
  <rect width="1280" height="280" fill="#fafafa"/>

  <!-- Subtle dot grid (left half only) -->
  <g opacity="0.045">
    <circle cx="80"  cy="56"  r="1.2" fill="#09090b"/>
    <circle cx="160" cy="56"  r="1.2" fill="#09090b"/>
    <circle cx="240" cy="56"  r="1.2" fill="#09090b"/>
    <circle cx="320" cy="56"  r="1.2" fill="#09090b"/>
    <circle cx="400" cy="56"  r="1.2" fill="#09090b"/>
    <circle cx="480" cy="56"  r="1.2" fill="#09090b"/>
    <circle cx="560" cy="56"  r="1.2" fill="#09090b"/>
    <circle cx="80"  cy="112" r="1.2" fill="#09090b"/>
    <circle cx="160" cy="112" r="1.2" fill="#09090b"/>
    <circle cx="240" cy="112" r="1.2" fill="#09090b"/>
    <circle cx="320" cy="112" r="1.2" fill="#09090b"/>
    <circle cx="400" cy="112" r="1.2" fill="#09090b"/>
    <circle cx="480" cy="112" r="1.2" fill="#09090b"/>
    <circle cx="560" cy="112" r="1.2" fill="#09090b"/>
    <circle cx="80"  cy="168" r="1.2" fill="#09090b"/>
    <circle cx="160" cy="168" r="1.2" fill="#09090b"/>
    <circle cx="240" cy="168" r="1.2" fill="#09090b"/>
    <circle cx="320" cy="168" r="1.2" fill="#09090b"/>
    <circle cx="400" cy="168" r="1.2" fill="#09090b"/>
    <circle cx="480" cy="168" r="1.2" fill="#09090b"/>
    <circle cx="560" cy="168" r="1.2" fill="#09090b"/>
    <circle cx="80"  cy="224" r="1.2" fill="#09090b"/>
    <circle cx="160" cy="224" r="1.2" fill="#09090b"/>
    <circle cx="240" cy="224" r="1.2" fill="#09090b"/>
    <circle cx="320" cy="224" r="1.2" fill="#09090b"/>
    <circle cx="400" cy="224" r="1.2" fill="#09090b"/>
    <circle cx="480" cy="224" r="1.2" fill="#09090b"/>
    <circle cx="560" cy="224" r="1.2" fill="#09090b"/>
  </g>

  <!-- ===================== LEFT: Text content ===================== -->

  <text x="88" y="118" font-family="-apple-system, BlinkMacSystemFont, 'Segoe UI', sans-serif" font-size="68" font-weight="700" letter-spacing="-3" fill="#09090b">CodePrep</text>

  <text x="90" y="150" font-family="-apple-system, BlinkMacSystemFont, 'Segoe UI', sans-serif" font-size="15.5" font-weight="400" fill="#71717a">AI mock interviewer for software engineering roles</text>

  <!-- Pill: 132+ problems -->
  <rect x="90" y="164" width="124" height="25" rx="5" fill="#ffffff" stroke="#e4e4e7" stroke-width="1.5"/>
  <text x="152" y="181" text-anchor="middle" font-family="-apple-system, BlinkMacSystemFont, 'Segoe UI', sans-serif" font-size="11.5" font-weight="500" fill="#09090b">132+ problems</text>

  <!-- Pill: Voice mode -->
  <rect x="222" y="164" width="94" height="25" rx="5" fill="#ffffff" stroke="#e4e4e7" stroke-width="1.5"/>
  <text x="269" y="181" text-anchor="middle" font-family="-apple-system, BlinkMacSystemFont, 'Segoe UI', sans-serif" font-size="11.5" font-weight="500" fill="#09090b">Voice mode</text>

  <!-- Pill: Strong Hire -->
  <rect x="324" y="164" width="108" height="25" rx="5" fill="#f0fdf4" stroke="#bbf7d0" stroke-width="1.5"/>
  <circle cx="340" cy="176.5" r="4" fill="#16a34a"/>
  <text x="350" y="181" font-family="-apple-system, BlinkMacSystemFont, 'Segoe UI', sans-serif" font-size="11.5" font-weight="500" fill="#16a34a">Strong Hire</text>

  <!-- ===================== RIGHT: App wireframe mockup ===================== -->

  <defs>
    <clipPath id="win">
      <rect x="580" y="18" width="668" height="250" rx="10"/>
    </clipPath>
  </defs>

  <!-- Drop shadow -->
  <rect x="584" y="24" width="668" height="250" rx="10" fill="#09090b" opacity="0.05"/>

  <!-- Window base -->
  <rect x="580" y="18" width="668" height="250" rx="10" fill="#ffffff"/>

  <g clip-path="url(#win)">

    <!-- TOP NAV BAR -->
    <rect x="580" y="18" width="668" height="28" fill="#ffffff"/>
    <line x1="580" y1="46" x2="1248" y2="46" stroke="#e4e4e7" stroke-width="1"/>

    <text x="594" y="37" font-family="-apple-system, BlinkMacSystemFont, 'Segoe UI', sans-serif" font-size="9.5" fill="#71717a">&#8592; Back</text>
    <text x="862" y="37" text-anchor="middle" font-family="-apple-system, BlinkMacSystemFont, 'Segoe UI', sans-serif" font-size="11" font-weight="600" fill="#09090b">LRU Cache</text>

    <rect x="1056" y="26" width="38" height="14" rx="3" fill="#f4f4f5"/>
    <text x="1075" y="36" text-anchor="middle" font-family="sans-serif" font-size="8" fill="#71717a">Study</text>
    <rect x="1100" y="26" width="36" height="14" rx="3" fill="#f4f4f5"/>
    <text x="1118" y="36" text-anchor="middle" font-family="sans-serif" font-size="8" fill="#71717a">Tutor</text>
    <rect x="1142" y="26" width="66" height="14" rx="3" fill="#fee2e2"/>
    <text x="1175" y="36" text-anchor="middle" font-family="sans-serif" font-size="8" fill="#dc2626">End Interview</text>

    <!-- Panel dividers -->
    <line x1="748" y1="46" x2="748" y2="268" stroke="#e4e4e7" stroke-width="1"/>
    <line x1="1030" y1="46" x2="1030" y2="268" stroke="#e4e4e7" stroke-width="1"/>

    <!-- LEFT PANEL: Problem + Interview (x=580-748, w=168) -->
    <rect x="580" y="46" width="168" height="222" fill="#ffffff"/>

    <text x="592" y="64" font-family="-apple-system, BlinkMacSystemFont, 'Segoe UI', sans-serif" font-size="11" font-weight="700" fill="#09090b">LRU Cache</text>
    <rect x="592" y="69" width="24" height="11" rx="2" fill="#dbeafe"/>
    <text x="604" y="78" text-anchor="middle" font-family="sans-serif" font-size="7.5" fill="#1d4ed8">OOP</text>
    <rect x="620" y="69" width="26" height="11" rx="2" fill="#fee2e2"/>
    <text x="633" y="78" text-anchor="middle" font-family="sans-serif" font-size="7.5" fill="#dc2626">Hard</text>

    <rect x="592" y="87"  width="148" height="5" rx="2" fill="#e4e4e7"/>
    <rect x="592" y="96"  width="134" height="5" rx="2" fill="#e4e4e7"/>
    <rect x="592" y="105" width="150" height="5" rx="2" fill="#e4e4e7"/>
    <rect x="592" y="114" width="116" height="5" rx="2" fill="#e4e4e7"/>
    <rect x="592" y="123" width="142" height="5" rx="2" fill="#e4e4e7"/>
    <rect x="592" y="132" width="96"  height="5" rx="2" fill="#e4e4e7"/>
    <rect x="592" y="141" width="128" height="5" rx="2" fill="#e4e4e7"/>

    <text x="592" y="161" font-family="-apple-system, BlinkMacSystemFont, 'Segoe UI', sans-serif" font-size="7.5" font-weight="600" letter-spacing="1" fill="#a1a1aa">INTERVIEW</text>

    <rect x="592" y="166" width="148" height="40" rx="6" fill="#f4f4f5"/>
    <rect x="600" y="172" width="120" height="4" rx="2" fill="#d4d4d8"/>
    <rect x="600" y="180" width="132" height="4" rx="2" fill="#d4d4d8"/>
    <rect x="600" y="188" width="88"  height="4" rx="2" fill="#d4d4d8"/>

    <rect x="604" y="212" width="136" height="20" rx="6" fill="#eff6ff"/>
    <rect x="612" y="217" width="108" height="4" rx="2" fill="#bfdbfe"/>
    <rect x="612" y="224" width="70"  height="4" rx="2" fill="#bfdbfe"/>

    <line x1="580" y1="247" x2="748" y2="247" stroke="#e4e4e7" stroke-width="1"/>
    <rect x="580" y="247" width="168" height="21" fill="#fafafa"/>
    <rect x="588" y="252" width="96" height="10" rx="3" fill="#ebebeb"/>
    <rect x="690" y="251" width="48" height="12" rx="3" fill="#18181b"/>
    <text x="714" y="261" text-anchor="middle" font-family="sans-serif" font-size="7.5" font-weight="500" fill="#ffffff">Send</text>

    <!-- MIDDLE PANEL: Dark code editor (x=748-1030, w=282) -->
    <rect x="748" y="46" width="282" height="222" fill="#1e1e2e"/>

    <rect x="748" y="46" width="282" height="22" fill="#252535"/>
    <rect x="756" y="51" width="40" height="13" rx="3" fill="#32324a"/>
    <text x="776" y="61" text-anchor="middle" font-family="monospace" font-size="7.5" fill="#9d9dbd">Python</text>
    <rect x="928" y="51" width="30" height="13" rx="3" fill="#32324a"/>
    <text x="943" y="61" text-anchor="middle" font-family="sans-serif" font-size="7" fill="#9d9dbd">Clear</text>
    <rect x="962" y="51" width="32" height="13" rx="3" fill="#32324a"/>
    <text x="978" y="61" text-anchor="middle" font-family="sans-serif" font-size="7" fill="#4ade80">&#9654; Run</text>
    <rect x="998" y="51" width="28" height="13" rx="3" fill="#16a34a" opacity="0.2"/>
    <text x="1012" y="61" text-anchor="middle" font-family="sans-serif" font-size="6.5" fill="#4ade80">&#10003; Tests</text>

    <text x="757" y="84"  font-family="monospace" font-size="8.5" fill="#44445a">1</text>
    <rect x="770" y="78"  width="32" height="7" rx="1.5" fill="#c792ea"/>
    <rect x="806" y="78"  width="56" height="7" rx="1.5" fill="#82aaff"/>
    <rect x="866" y="78"  width="8"  height="7" rx="1.5" fill="#89ddff"/>

    <text x="757" y="98"  font-family="monospace" font-size="8.5" fill="#44445a">2</text>
    <rect x="778" y="92"  width="20" height="7" rx="1.5" fill="#c792ea"/>
    <rect x="802" y="92"  width="32" height="7" rx="1.5" fill="#82aaff"/>
    <rect x="838" y="92"  width="26" height="7" rx="1.5" fill="#c3e88d"/>
    <rect x="868" y="92"  width="18" height="7" rx="1.5" fill="#f78c6c"/>

    <text x="757" y="112" font-family="monospace" font-size="8.5" fill="#44445a">3</text>
    <rect x="786" y="106" width="16" height="7" rx="1.5" fill="#89ddff"/>

    <text x="757" y="126" font-family="monospace" font-size="8.5" fill="#44445a">4</text>
    <rect x="778" y="120" width="20" height="7" rx="1.5" fill="#c792ea"/>
    <rect x="802" y="120" width="30" height="7" rx="1.5" fill="#82aaff"/>
    <rect x="836" y="120" width="20" height="7" rx="1.5" fill="#c3e88d"/>
    <rect x="860" y="120" width="24" height="7" rx="1.5" fill="#89ddff"/>

    <text x="757" y="140" font-family="monospace" font-size="8.5" fill="#44445a">5</text>
    <rect x="786" y="134" width="16" height="7" rx="1.5" fill="#89ddff"/>

    <text x="757" y="154" font-family="monospace" font-size="8.5" fill="#44445a">6</text>
    <rect x="778" y="148" width="20" height="7" rx="1.5" fill="#c792ea"/>
    <rect x="802" y="148" width="34" height="7" rx="1.5" fill="#82aaff"/>
    <rect x="840" y="148" width="28" height="7" rx="1.5" fill="#c3e88d"/>
    <rect x="872" y="148" width="36" height="7" rx="1.5" fill="#f78c6c"/>

    <text x="757" y="168" font-family="monospace" font-size="8.5" fill="#44445a">7</text>
    <rect x="786" y="162" width="16" height="7" rx="1.5" fill="#89ddff"/>

    <text x="757" y="182" font-family="monospace" font-size="8.5" fill="#44445a">8</text>
    <rect x="786" y="174" width="2" height="11" rx="1" fill="#82aaff" opacity="0.85"/>

    <line x1="748" y1="207" x2="1030" y2="207" stroke="#32324a" stroke-width="1.5"/>
    <rect x="748" y="207" width="282" height="61" fill="#181826"/>
    <text x="762" y="221" font-family="sans-serif" font-size="8.5" fill="#6b6b8a">Output</text>
    <text x="800" y="221" font-family="sans-serif" font-size="8.5" font-weight="600" fill="#ffffff">Tests</text>
    <line x1="800" y1="223" x2="820" y2="223" stroke="#22c55e" stroke-width="1.5"/>
    <circle cx="760" cy="233" r="4" fill="#22c55e"/>
    <rect x="768" y="230" width="122" height="5" rx="2" fill="#1e2d1e"/>
    <circle cx="760" cy="246" r="4" fill="#22c55e"/>
    <rect x="768" y="243" width="142" height="5" rx="2" fill="#1e2d1e"/>
    <circle cx="760" cy="259" r="4" fill="#22c55e"/>
    <rect x="768" y="256" width="100" height="5" rx="2" fill="#1e2d1e"/>

    <!-- RIGHT PANEL: AI Tutor (x=1030-1248, w=218) -->
    <rect x="1030" y="46" width="218" height="222" fill="#f8f9fa"/>

    <text x="1044" y="64" font-family="-apple-system, BlinkMacSystemFont, 'Segoe UI', sans-serif" font-size="12" font-weight="700" fill="#09090b">Tutor</text>
    <rect x="1074" y="55" width="34" height="14" rx="4" fill="#eff6ff" stroke="#bfdbfe" stroke-width="1"/>
    <text x="1091" y="65" text-anchor="middle" font-family="sans-serif" font-size="8" fill="#3b82f6">AI &#10022;</text>

    <rect x="1044" y="74"  width="192" height="5" rx="2" fill="#d4d4d8"/>
    <rect x="1044" y="83"  width="175" height="5" rx="2" fill="#d4d4d8"/>
    <rect x="1044" y="92"  width="186" height="5" rx="2" fill="#d4d4d8"/>
    <rect x="1044" y="101" width="144" height="5" rx="2" fill="#d4d4d8"/>
    <rect x="1044" y="116" width="190" height="5" rx="2" fill="#d4d4d8"/>
    <rect x="1044" y="125" width="162" height="5" rx="2" fill="#d4d4d8"/>
    <rect x="1044" y="134" width="180" height="5" rx="2" fill="#d4d4d8"/>
    <rect x="1044" y="143" width="124" height="5" rx="2" fill="#d4d4d8"/>
    <rect x="1044" y="158" width="188" height="5" rx="2" fill="#d4d4d8"/>
    <rect x="1044" y="167" width="148" height="5" rx="2" fill="#d4d4d8"/>

    <rect x="1044" y="182" width="110" height="24" rx="6" fill="#f0fdf4" stroke="#bbf7d0" stroke-width="1.5"/>
    <circle cx="1060" cy="194" r="4" fill="#16a34a"/>
    <text x="1069" y="198" font-family="-apple-system, BlinkMacSystemFont, 'Segoe UI', sans-serif" font-size="9.5" font-weight="600" fill="#16a34a">Strong Hire</text>

    <line x1="1030" y1="247" x2="1248" y2="247" stroke="#e4e4e7" stroke-width="1"/>
    <rect x="1030" y="247" width="218" height="21" fill="#ffffff"/>
    <rect x="1038" y="252" width="130" height="10" rx="3" fill="#f4f4f5"/>
    <text x="1042" y="260" font-family="sans-serif" font-size="7.5" fill="#a1a1aa">Ask for a hint...</text>
    <rect x="1182" y="251" width="30" height="12" rx="3" fill="#18181b"/>
    <text x="1197" y="261" text-anchor="middle" font-family="sans-serif" font-size="7.5" font-weight="500" fill="#ffffff">Send</text>

  </g>

  <!-- Window border (drawn on top) -->
  <rect x="580" y="18" width="668" height="250" rx="10" fill="none" stroke="#d4d4d8" stroke-width="1.5"/>

  <!-- Bottom banner border -->
  <rect x="0" y="278" width="1280" height="2" fill="#e4e4e7"/>

</svg>
